<svg xmlns="http://www.w3.org/2000/svg" width="27" height="17.198"><path fill="#393939" d="M27 7.136c0 3.934-3.2 7.136-7.135 7.136H2.635l1.61 1.61a.771.771 0 1 1-1.09 1.092L.231 14.05a.774.774 0 0 1-.225-.647V13.4a.695.695 0 0 1 .018-.093v-.002a.779.779 0 0 1 .193-.343l.001-.001.001-.002H.22l.002-.002.002-.001.001-.002.002-.001 2.928-2.925a.77.77 0 1 1 1.09 1.091l-1.61 1.609h17.23a5.6 5.6 0 0 0 5.592-5.593 5.6 5.6 0 0 0-5.592-5.593h-6.364a.772.772 0 0 1 0-1.542h6.364C23.8 0 27 3.201 27 7.136z"/></svg>