<svg xmlns="http://www.w3.org/2000/svg" width="62.114" height="47.556"><g fill="#393939"><path d="M62.114 19.137a4.852 4.852 0 0 0-4.846-4.846h-6.813V4.844A4.849 4.849 0 0 0 45.611 0H4.845A4.85 4.85 0 0 0 0 4.844v23.572a4.85 4.85 0 0 0 4.845 4.846h6.813v9.45a4.85 4.85 0 0 0 4.844 4.844h40.767a4.85 4.85 0 0 0 4.846-4.844V19.137zM2.183 4.844a2.666 2.666 0 0 1 2.662-2.663h40.767a2.664 2.664 0 0 1 2.661 2.663v2.503H2.183V4.844zm9.941 12.225a4.762 4.762 0 0 0-.466 2.067v11.942H4.845a2.666 2.666 0 0 1-2.662-2.663V16.483h10.219l-.278.586zm-9.531-2.77h-.41V9.533h46.09v4.758l-45.68.008zm57.338 28.413a2.665 2.665 0 0 1-2.662 2.661H16.502a2.664 2.664 0 0 1-2.66-2.661V19.137a2.676 2.676 0 0 1 2.442-2.651l.035-.002h33.044c.035 0 .07-.001.104-.006l7.801-.005a2.667 2.667 0 0 1 2.662 2.665v23.574z"/><path d="M46.557 23.674a1.324 1.324 0 0 0-1.874.002L32.997 35.361l-4.348-4.349c-.251-.249-.584-.387-.938-.387s-.687.138-.937.387a1.325 1.325 0 0 0 0 1.873l5.285 5.286c.249.249.582.387.937.387.354 0 .687-.138.938-.387l12.622-12.624c.251-.25.389-.583.389-.936 0-.353-.137-.686-.388-.937z"/></g></svg>