<svg xmlns="http://www.w3.org/2000/svg" width="37" height="37"><path fill="#393939" d="M18.5 0C8.282 0 0 8.283 0 18.5S8.282 37 18.5 37C28.717 37 37 28.717 37 18.5S28.717 0 18.5 0zm-1.735 9.875c0-.196.07-.365.214-.507a.69.69 0 0 1 .507-.214h2.029c.195 0 .364.071.507.214s.214.311.214.507V21.73a.69.69 0 0 1-.214.507.694.694 0 0 1-.507.215h-2.029a.69.69 0 0 1-.507-.215.686.686 0 0 1-.214-.507V9.875zm3.604 17.25c0 .196-.071.365-.214.508s-.312.213-.508.213h-2.296a.689.689 0 0 1-.507-.213.693.693 0 0 1-.214-.508v-2.35c0-.195.071-.365.214-.508a.689.689 0 0 1 .507-.213h2.296c.196 0 .365.07.508.213s.214.313.214.508v2.35z"/></svg>