<svg xmlns="http://www.w3.org/2000/svg" width="233" height="44.59" viewBox="81.874 15.669 233 44.59"><path fill="#003764" d="M147.27 42.608V19.427h4.625l6.704 9.688 6.705-9.688h4.624v23.181h-4.183V25.479l-7.166 10.255-7.167-10.255v17.149h-4.141v-.02zm26.165-23.181h5.044l6.137 9.414 6.115-9.414h5.044l-9.058 13.238v9.942h-4.182v-9.942l-9.1-13.238z"/><path fill="#0055B8" d="M199.011 36.008c-.441-1.429-.651-3.108-.651-5 0-1.893.209-3.573.651-5.001.441-1.43 1.01-2.584 1.703-3.449a8.048 8.048 0 0 1 2.521-2.08c.987-.547 1.956-.903 2.879-1.071.945-.189 1.954-.274 3.047-.274 2.375 0 4.709.462 7.02 1.366v3.91c-2.208-1.008-4.414-1.535-6.663-1.535-1.05 0-1.934.084-2.669.273a6.147 6.147 0 0 0-2.164 1.071c-.715.527-1.239 1.368-1.62 2.501-.377 1.136-.544 2.566-.544 4.269 0 1.722.188 3.149.544 4.265.359 1.134.905 1.954 1.62 2.502.714.526 1.429.883 2.164 1.072.735.189 1.642.272 2.669.272 2.229 0 4.455-.503 6.663-1.535v3.889c-2.312.924-4.665 1.387-7.02 1.387-1.093 0-2.102-.085-3.047-.275-.945-.188-1.892-.545-2.879-1.07a8.664 8.664 0 0 1-2.521-2.08c-.693-.821-1.261-1.976-1.703-3.407zm22.066 6.6V19.427h8.912c2.712 0 4.834.651 6.326 1.932 1.514 1.282 2.27 3.133 2.27 5.528 0 3.532-1.702 5.821-5.085 6.853l6.094 8.868h-5.044l-5.527-8.175h-3.741v8.175h-4.205zm4.184-12.002h4.623c1.407 0 2.521-.25 3.319-.756.799-.501 1.199-1.45 1.199-2.856 0-1.43-.4-2.397-1.199-2.88-.798-.504-1.911-.735-3.319-.735h-4.623v7.227zm18.516 12.002V19.427h15.426v3.74H247.96v5.862h9.75v3.931h-9.75v5.864h11.243v3.738h-15.426v.046zm20.427 0V19.427h8.007c3.593 0 6.306.987 8.177 2.964 1.849 1.975 2.793 4.854 2.793 8.658 0 3.782-.923 6.662-2.773 8.614-1.849 1.977-4.581 2.965-8.176 2.965h-8.027v-.02h-.001zm4.162-3.741h3.824c2.417 0 4.14-.612 5.191-1.829 1.05-1.22 1.597-3.216 1.597-5.989 0-2.793-.525-4.813-1.597-6.033-1.052-1.216-2.796-1.828-5.191-1.828h-3.824v15.679zm19.922 3.741V19.427h4.184v23.181h-4.184zm7.587-19v-4.181h18.999v4.181h-7.44v19h-4.183v-19h-7.376z"/><path fill="#003764" d="M120.973 17.655c-.792-1.093-2.547-1.986-3.897-1.986H84.328a2.461 2.461 0 0 0-2.455 2.455v3.89h42.267l-3.167-4.359z"/><path fill="#0055B8" d="M132.357 33.323l-5.167-7.111H81.873v26.282a2.461 2.461 0 0 0 2.455 2.455h32.749c1.35 0 3.104-.895 3.897-1.986l11.384-15.668c.792-1.094.792-2.88-.001-3.972zM90.45 49.567h-1.931a1.933 1.933 0 0 1 0-3.867h1.931c1.069 0 1.932.866 1.932 1.933a1.932 1.932 0 0 1-1.932 1.934zm15.055 0h-8.194a1.933 1.933 0 0 1 0-3.867h8.194a1.934 1.934 0 0 1 0 3.867zm.401-9.66H88.519a1.933 1.933 0 1 1 0-3.867h17.386a1.933 1.933 0 0 1 .001 3.867z"/></svg>