<svg xmlns="http://www.w3.org/2000/svg" width="24.001" height="18.457"><path d="M18.372.933C17.999.42 17.176 0 16.541 0H1.153C.52 0 0 .519 0 1.153v1.828h19.859L18.372.933zm5.349 7.362l-2.428-3.342L0 4.954v12.349c0 .635.52 1.154 1.153 1.154h15.388c.635 0 1.458-.42 1.831-.934l5.349-7.362c.373-.513.373-1.353 0-1.866zM4.03 15.927h-.907a.907.907 0 1 1 0-1.816h.907a.907.907 0 1 1 0 1.816zm7.074 0h-3.85a.907.907 0 0 1 0-1.816h3.85a.907.907 0 1 1 0 1.816zm.188-4.538H3.123a.907.907 0 1 1 0-1.816h8.169a.907.907 0 0 1 0 1.816z" fill="#393939"/></svg>