<svg xmlns="http://www.w3.org/2000/svg" width="30.205" height="31.507"><path d="M8.404.31h2.223l-6.031 9.797H1.972l-.237-7.752c-.011-.352-.02-.715-.154-.998A1.274 1.274 0 0 0 .964.743 2.151 2.151 0 0 0 0 .532V.31h4.328l.212 6.669L8.404.31m2.654 9.797L14.154.31h-2.756l-3.097 9.797h2.757m1.6-.83c.418.425.957.72 1.693.865.736.146 1.671.142 2.556-.01.886-.151 1.723-.448 2.313-.899.592-.451.938-1.056 1.106-1.709.168-.655.159-1.359-.196-1.908-.354-.549-1.056-.944-1.639-1.317-.584-.372-1.049-.722-1.243-1.116a1.05 1.05 0 0 1 .112-1.112c.227-.281.601-.405 1.061-.434s1.006.038 1.459.165c.453.126.813.314 1.121.568L21.92.902C21.493.597 21.009.38 20.324.22s-1.569-.262-2.338-.205c-.769.057-1.422.273-2.001.656s-1.083.933-1.366 1.526-.345 1.228-.172 1.777c.174.55.583 1.013 1.005 1.345.421.333.856.534 1.238.764.383.23.712.489.889.8.178.311.201.674-.012.975-.213.301-.664.541-1.185.625-.52.085-1.108.016-1.655-.15s-1.054-.429-1.493-.776l-.576 1.72m10.318-1.438l-1.247 2.268h-2.224L25.419.31h2.505l.844 9.797H26.16l-.184-2.268h-3m2.616-4.756l-1.915 3.482h2.196l-.281-3.482M29.675.485a.24.24 0 0 0-.19-.084h-.403v.96h.093V.95h.205l.279.412h.115L29.501.95a.193.193 0 0 0 .159-.053.274.274 0 0 0 .082-.186.347.347 0 0 0-.067-.226m-.501.354V.517h.276c.038 0 .08-.002.11.025.03.028.049.076.051.126a.2.2 0 0 1-.043.14c-.03.033-.076.031-.118.031h-.276m.631-.672a.798.798 0 1 0-.798 1.382.798.798 0 0 0 .798-1.382m.175.361a.666.666 0 1 1-1.153 0 .662.662 0 0 1 .909-.244.664.664 0 0 1 .244.244" fill="#352E7F"/><path fill="#D4642B" d="M11.328 16.097h7.549v13.565h-7.549z"/><path fill="#C42028" d="M11.809 22.879a8.608 8.608 0 0 1 3.295-6.782 8.627 8.627 0 0 0-13.959 6.782 8.627 8.627 0 0 0 13.959 6.783 8.607 8.607 0 0 1-3.295-6.783"/><path fill="#E29C2F" d="M29.061 22.879a8.626 8.626 0 0 1-8.627 8.627 8.58 8.58 0 0 1-5.33-1.844c2.006-1.58 3.294-4.031 3.294-6.783s-1.288-5.203-3.294-6.782a8.628 8.628 0 0 1 13.957 6.782m-.823 5.346v-.277h.111v-.057h-.285v.057h.111v.277h.063zm.553 0v-.334h-.088l-.1.23-.102-.23h-.087v.334h.062v-.252l.094.218h.064l.095-.219v.253h.062z"/></svg>