<svg xmlns="http://www.w3.org/2000/svg" width="23.852" height="23.851"><g fill="#393939"><path d="M11.925 3.252c-1.196 0-2.17.973-2.17 2.169s.974 2.169 2.17 2.169 2.169-.973 2.169-2.169-.973-2.169-2.169-2.169zm0 3.254a1.085 1.085 0 1 1 0-2.17 1.085 1.085 0 0 1 0 2.17z"/><path d="M23.309 9.757c.3 0 .543-.24.543-.541V7.049a.542.542 0 0 0-.266-.466L12.982.286l-.015-.009c-.658-.365-1.402-.376-2.099.008L.266 6.583A.542.542 0 0 0 0 7.049v2.168c0 .3.243.541.543.541h1.626v9.757A2.17 2.17 0 0 0 0 21.683v1.626c0 .3.243.542.543.542h22.766c.3 0 .543-.242.543-.542v-1.626a2.171 2.171 0 0 0-2.169-2.168V9.757h1.626zm-.542 11.926v1.084H1.084v-1.084c0-.598.487-1.084 1.085-1.084h19.514c.597 0 1.084.486 1.084 1.084zM3.253 19.515V9.757h2.168v9.757H3.253zm3.253 0V9.757h3.252v9.757H6.506zm4.336 0V9.757h2.168v9.757h-2.168zm3.252 0V9.757h3.253v9.757h-3.253zm4.337 0V9.757h2.168v9.757h-2.168zM1.084 8.673V7.355l10.323-6.132a1.026 1.026 0 0 1 1.029-.003l10.33 6.135v1.318H1.084z"/></g></svg>