<svg xmlns="http://www.w3.org/2000/svg" width="18.814" height="21.688"><path fill="#393939" d="M18.108 3.735L11.487.15C10.859-.19 9.996.071 9.655.7L5.782 7.896H1.071A1.06 1.06 0 0 0-.001 8.969v11.646c0 .602.471 1.073 1.072 1.073h15.048c.603 0 1.073-.472 1.073-1.073v-2.722h.445a.414.414 0 0 0 .419-.419v-3.113a.415.415 0 0 0-.419-.42h-.445V10.88c0-.497-.366-.942-.837-1.047l2.303-4.266a1.373 1.373 0 0 0-.55-1.832zm-4.711-1.596L9.262 9.807H8.085l4.422-8.139.89.471zm-2.982-1.047c.131-.235.444-.34.68-.209l.654.367-4.606 8.557H5.704l4.711-8.715zM.809 8.943c0-.078.105-.209.236-.209h4.266l-.576 1.047h-3.69c-.079 0-.157 0-.236.026v-.864zm15.52 11.672a.233.233 0 0 1-.235.235H1.045a.234.234 0 0 1-.236-.235V10.88c0-.13.105-.235.236-.235h15.022c.131 0 .235.105.235.235v3.062h-1.597c-.706 0-1.256.576-1.256 1.256v1.44c0 .706.576 1.256 1.256 1.256h1.623v2.721h.001zm.838-5.836h.025v2.276h-2.486a.413.413 0 0 1-.418-.418v-1.44c0-.234.183-.418.418-.418h2.461zm.732-9.631l-2.513 4.659h-5.182l3.926-7.25 3.559 1.937c.262.105.341.419.21.654z"/><path fill="#393939" d="M16.302 4.756l-.209-.105c-.523-.288-1.23-.078-1.519.445l-.262.497c-.131.262-.183.576-.078.864.078.288.288.523.55.655l.209.104c.157.079.341.13.523.13.419 0 .785-.235.994-.575l.263-.498c.262-.548.053-1.229-.471-1.517zm-.288 1.125l-.261.498a.296.296 0 0 1-.394.104l-.209-.131c-.053-.026-.104-.104-.131-.157-.026-.079-.026-.157.026-.209l.262-.497c.052-.079.157-.157.262-.157a.24.24 0 0 1 .131.026l.209.105a.404.404 0 0 1 .105.418z"/></svg>