<svg xmlns="http://www.w3.org/2000/svg" width="17.634" height="18.507"><path fill="#393939" d="M8.794 1.071c2.015 0 3.593 1.888 3.593 4.298 0 2.489-1.611 4.514-3.593 4.514-1.98 0-3.592-2.025-3.592-4.514 0-2.41 1.577-4.298 3.592-4.298M4.227 12.316c.143 0 .313.047.49.131.101.057.341.303.471.436.115.117.235.24.352.345.533.479 1.489 1.055 3.019 1.085h.771c1.528-.03 2.484-.606 3.017-1.085.133-.118.263-.256.389-.391.129-.137.344-.365.43-.416a.873.873 0 0 1 .369-.105c.06 0 .216 0 .446.264 1.102 1.252 2.024 3.561 2.033 3.582l.011.027.012.025.404.88c.048.105.083.222.104.315a.982.982 0 0 1-.238.027h-.017l-.046-.004H1.517l-.035.002h-.028c-.147 0-.281-.023-.369-.051.019-.097.053-.22.102-.332l.392-.892c.01-.022 1.036-2.306 2.157-3.581.203-.231.363-.262.491-.262M8.794 0C6.218 0 4.131 2.286 4.131 5.369c0 3.084 2.087 5.585 4.663 5.585s4.664-2.501 4.664-5.585C13.458 2.286 11.37 0 8.794 0zM4.227 11.246c-.425 0-.882.156-1.296.627-1.24 1.412-2.33 3.852-2.33 3.852l-.395.898c-.161.365-.324 1.023-.09 1.347.357.493 1.088.537 1.338.537.055 0 .087-.002.087-.002h14.655s.04.003.107.003c.255 0 .896-.049 1.218-.512.229-.328.058-.982-.109-1.348l-.404-.88s-.983-2.483-2.225-3.896c-.413-.471-.851-.627-1.251-.627-.317 0-.61.1-.849.219-.358.179-.755.699-1.054.967-.41.369-1.137.788-2.322.811h-.728c-1.187-.022-1.913-.441-2.324-.811-.299-.268-.707-.773-1.068-.946a2.262 2.262 0 0 0-.96-.239z"/></svg>