<svg xmlns="http://www.w3.org/2000/svg" width="31" height="10.058"><g fill-rule="evenodd" clip-rule="evenodd"><path fill="#FFF" d="M30.091 0H31v10.058H0v-2.02c.007.025.018.05.021.076A2.17 2.17 0 0 0 1.667 9.97c.163.038.333.051.51.077v-.158l-.001-7.588c0-.111-.006-.222-.015-.332A2.165 2.165 0 0 0 .497.065C.38.038.26.021.142 0h3.332c.019.153.023.31.058.459a2.155 2.155 0 0 0 2.131 1.718c.296.002.592-.002.888.001a.876.876 0 0 1 .832 1.08c-.103.412-.446.676-.89.678-.646.002-1.293-.003-1.938.002a1.073 1.073 0 0 0-1.076 1.091c-.002.94-.004 1.878.002 2.817.001.183.024.371.069.549a2.165 2.165 0 0 0 2.105 1.639c.875.002 1.75.003 2.625-.002a3.04 3.04 0 0 0 3.027-3.399c-.141-1.151-.764-1.963-1.81-2.456a3.978 3.978 0 0 0-.094-.046v-.027l.022-.068c.148-.455.193-.918.129-1.393A3.042 3.042 0 0 0 7.279.103C7.084.055 6.883.034 6.685 0h10.279c-.032.007-.064.015-.098.02-.206.028-.414.044-.619.083-2.704.513-4.498 3.206-3.94 5.911.573 2.774 3.289 4.526 6.037 3.895 3.014-.691 4.708-3.939 3.51-6.793-.726-1.729-2.053-2.742-3.906-3.055-.152-.027-.306-.041-.459-.061h5.291l-.305.048a2.314 2.314 0 0 0-.65.2c.951 1.407 1.896 2.807 2.849 4.215.034-.033.06-.053.082-.077.575-.625.809-1.356.685-2.199-.154-1.044-.999-1.926-2.032-2.119-.155-.028-.311-.046-.467-.068h6.745c-.06.009-.118.019-.178.027-.934.137-1.67.593-2.189 1.383-1.789 2.728-3.573 5.459-5.359 8.189a8.754 8.754 0 0 0-.147.233l.07.029c.453.157.918.213 1.392.146.932-.13 1.66-.592 2.185-1.373.294-.438.585-.879.877-1.319.021-.032.045-.063.075-.108.033.05.059.088.083.127.296.461.569.938.891 1.382.749 1.035 1.773 1.451 3.036 1.269.184-.026.361-.089.557-.139l-.074-.115c-.996-1.521-1.989-3.042-2.986-4.559-.06-.091-.065-.15-.004-.246.998-1.534 1.99-3.071 2.983-4.607l.074-.12c-.112-.034-.209-.072-.31-.093-.189-.041-.381-.071-.572-.106z"/><path fill="#414146" d="M17.489 0c.152.02.307.034.458.06 1.854.313 3.181 1.327 3.906 3.055 1.198 2.854-.496 6.102-3.51 6.793-2.748.631-5.464-1.121-6.037-3.895-.558-2.705 1.236-5.398 3.94-5.911.205-.039.413-.055.619-.083.033-.004.065-.013.098-.02l.526.001zm2.572 5.021a2.838 2.838 0 0 0-2.832-2.843 2.846 2.846 0 0 0-2.849 2.839 2.842 2.842 0 0 0 5.681.004zM6.685 0c.198.034.399.055.594.104a3.042 3.042 0 0 1 2.275 2.54c.064.475.02.938-.129 1.393l-.022.067v.027l.095.046c1.046.492 1.669 1.305 1.81 2.456a3.04 3.04 0 0 1-3.027 3.399c-.875.005-1.75.004-2.625.002A2.167 2.167 0 0 1 3.55 8.395a2.313 2.313 0 0 1-.069-.549c-.006-.939-.004-1.877-.002-2.817 0-.609.466-1.085 1.076-1.091.646-.006 1.292 0 1.938-.002.444-.002.787-.266.89-.678a.876.876 0 0 0-.832-1.08c-.296-.003-.592.001-.888-.001A2.157 2.157 0 0 1 3.531.459C3.497.31 3.492.153 3.474 0h3.211zm-1.03 7.855c.024.002.04.005.056.005.871 0 1.743.005 2.614-.003.517-.004.921-.525.816-1.033-.09-.439-.438-.721-.904-.722-.824-.002-1.648 0-2.473 0-.035 0-.071.004-.109.006v1.747zM30.091 0c.191.035.383.065.573.106.101.021.197.059.31.093l-.074.12c-.993 1.536-1.985 3.073-2.983 4.607-.062.095-.056.154.004.246.997 1.518 1.99 3.038 2.984 4.559.021.03.039.061.074.115-.195.05-.373.112-.557.139-1.263.183-2.287-.233-3.036-1.269-.321-.443-.595-.921-.891-1.382-.024-.039-.05-.077-.083-.127-.03.045-.054.076-.075.108-.292.44-.583.881-.877 1.319-.524.781-1.253 1.243-2.185 1.373a2.959 2.959 0 0 1-1.392-.146l-.07-.029.147-.233c1.786-2.73 3.57-5.461 5.359-8.189.519-.79 1.255-1.246 2.189-1.382.06-.008.118-.018.178-.027L30.091 0zM.142 0C.26.021.38.038.497.064c.896.2 1.584.987 1.664 1.904.009.111.015.222.015.333l.001 7.588v.158c-.177-.026-.347-.039-.511-.076A2.173 2.173 0 0 1 .02 8.115C.018 8.088.007 8.063 0 8.038V0h.142z"/><path fill="#FF4195" d="M22.942 0c.155.022.312.04.466.068 1.033.192 1.878 1.074 2.032 2.119.124.842-.109 1.574-.685 2.199-.022.024-.048.044-.082.077L21.824.248c.214-.103.428-.164.65-.2L22.78 0h.162z"/><path fill="#FFF" d="M20.061 5.021a2.835 2.835 0 0 1-2.835 2.838 2.842 2.842 0 0 1-2.846-2.842 2.845 2.845 0 0 1 2.849-2.839 2.838 2.838 0 0 1 2.832 2.843zM5.655 7.855V6.107c.038-.002.074-.006.109-.006h2.473c.466.001.814.283.904.722.104.507-.3 1.029-.816 1.033-.871.009-1.743.004-2.614.004-.016 0-.032-.003-.056-.005z"/></g></svg>