<svg xmlns="http://www.w3.org/2000/svg" width="17.388" height="13.406"><path d="M.066 5.443h15.927c.017 0 .021 0 .044-.022s.022-.028.022-.044V4.049c0-.018 0-.023-.022-.046-.021-.021-.027-.021-.044-.021H.066c-.017 0-.022 0-.046.023-.021.022-.021.027-.021.044v1.328c0 .016 0 .021.022.043.022.023.028.023.045.023zm0-3.981H12.01c.017 0 .022 0 .045-.023.022-.022.022-.028.022-.044V.067c0-.016 0-.022-.022-.045C12.033 0 12.028 0 12.01 0H.066C.049 0 .043 0 .02.023-.001.044-.001.05-.001.067v1.328c0 .017 0 .022.022.044.022.023.028.023.045.023zm0 11.944h17.253c.018 0 .023 0 .046-.021.022-.022.022-.028.022-.045v-1.328c0-.016 0-.021-.023-.044-.022-.022-.027-.022-.045-.022H.066c-.018 0-.022 0-.044.021-.023.023-.023.029-.023.045v1.328c0 .017 0 .022.023.045.021.021.027.021.044.021zm0-3.982h13.272c.017 0 .021 0 .044-.022.022-.021.022-.027.022-.045V8.03c0-.017 0-.022-.022-.044-.022-.023-.027-.023-.044-.023H.066c-.017 0-.022 0-.045.023-.022.021-.022.028-.022.044v1.327c0 .018 0 .023.022.045s.027.022.045.022z" fill="#393939"/></svg>