<svg xmlns="http://www.w3.org/2000/svg" width="17.673" height="16.874"><path fill="#393939" d="M17.647 6.377a.495.495 0 0 0-.396-.334l-5.514-.784L9.257.272a.49.49 0 0 0-.878.004L5.932 5.277l-5.515.82a.492.492 0 0 0-.395.334.484.484 0 0 0 .127.501L4.15 10.81l-.926 5.491a.492.492 0 0 0 .482.573c.08 0 .156-.018.229-.059l4.922-2.607 4.937 2.578a.492.492 0 0 0 .715-.433.381.381 0 0 0-.015-.113l-.954-5.459 3.976-3.899a.481.481 0 0 0 .131-.505zm-4.969 3.884a.486.486 0 0 0-.138.436l.83 4.764-4.287-2.238a.498.498 0 0 0-.457 0l-4.272 2.263.801-4.77a.484.484 0 0 0-.142-.431L1.546 6.917l4.784-.711a.486.486 0 0 0 .366-.268l2.125-4.342 2.155 4.331c.072.146.21.243.37.269l4.788.682-3.456 3.383z"/></svg>