<svg xmlns="http://www.w3.org/2000/svg" width="23.33" height="17.933"><path fill="#393939" d="M21.38 5.298h-2.374V1.947A1.95 1.95 0 0 0 17.059 0H1.947A1.95 1.95 0 0 0-.001 1.947v8.739a1.95 1.95 0 0 0 1.948 1.948H4.32v3.352a1.95 1.95 0 0 0 1.948 1.947H21.38a1.95 1.95 0 0 0 1.948-1.947v-8.74a1.95 1.95 0 0 0-1.948-1.948zM1.112 1.947c0-.459.374-.835.835-.835h15.112c.46 0 .835.375.835.835v.777H1.112v-.777zM4.32 7.246v4.275H1.947a.836.836 0 0 1-.835-.835V6.415h3.396a1.911 1.911 0 0 0-.188.831zM1.112 5.301V3.837h16.782v1.461H6.268l-.111.002H1.112zm20.268 11.52H6.268a.836.836 0 0 1-.835-.835v-8.74c0-.438.338-.796.767-.832h12.25a.408.408 0 0 0 .061-.004h2.87c.46 0 .835.375.835.835v8.74a.838.838 0 0 1-.836.836z"/><path fill="#393939" d="M15.5 8.933c-.633 0-1.215.221-1.675.589a2.663 2.663 0 0 0-1.678-.589 2.687 2.687 0 0 0-2.683 2.684 2.686 2.686 0 0 0 4.361 2.093c.46.368 1.042.589 1.675.589a2.686 2.686 0 0 0 2.683-2.682A2.686 2.686 0 0 0 15.5 8.933zm-2.381 3.915a1.549 1.549 0 0 1-.971.338 1.571 1.571 0 0 1 0-3.14c.358 0 .697.12.971.337a2.68 2.68 0 0 0 0 2.465zm2.381.338a1.57 1.57 0 1 1 .003-3.14 1.57 1.57 0 0 1-.003 3.14z"/></svg>