<svg xmlns="http://www.w3.org/2000/svg" width="20" height="20.661"><g fill="#393939"><path d="M19.996 6.904c0-.51-.199-.99-.56-1.351a1.9 1.9 0 0 0-1.351-.561l-13.1.009V1.234l10.021-.005-.01 1.645a.616.616 0 1 0 1.233.007l.009-1.583A1.3 1.3 0 0 0 14.936 0L5.053.004c-.351 0-.678.136-.92.383a1.292 1.292 0 0 0-.381.922v3.697H1.911a1.9 1.9 0 0 0-1.351.56C.199 5.927 0 6.407 0 6.917l.005 7.468c-.004.509.193.988.556 1.351a1.9 1.9 0 0 0 1.351.561.618.618 0 0 0 0-1.234.684.684 0 0 1-.473-.192.675.675 0 0 1-.2-.479l-.005-7.471c0-.373.304-.676.677-.676l16.175-.008a.672.672 0 0 1 .672.671l.004 7.468a.668.668 0 0 1-.672.673.617.617 0 0 0 0 1.233c.51 0 .989-.198 1.351-.56.361-.36.56-.841.56-1.351l-.005-7.467z"/><path d="M15.623 10.025l-11.258.005a.617.617 0 0 0-.617.617l.004 8.714c0 .717.585 1.3 1.305 1.3l9.883-.004c.351 0 .678-.136.92-.383a1.29 1.29 0 0 0 .381-.922v-8.71a.601.601 0 0 0-.18-.433.632.632 0 0 0-.438-.184zm-.612 9.403l-10.021.005-.004-8.169 10.02-.004.005 8.168z"/></g></svg>