<svg xmlns="http://www.w3.org/2000/svg" width="20" height="24.696"><path fill="#393939" d="M18.992 2.509L10.955.138a3.367 3.367 0 0 0-1.908 0L1.009 2.509A1.413 1.413 0 0 0 0 3.857v6.657c0 3.081.918 6.047 2.652 8.579a15.177 15.177 0 0 0 6.816 5.498 1.409 1.409 0 0 0 1.063 0 15.177 15.177 0 0 0 6.816-5.498A15.1 15.1 0 0 0 20 10.514V3.857a1.411 1.411 0 0 0-1.008-1.348zm-.116 8.005c0 2.853-.849 5.6-2.455 7.943a14.057 14.057 0 0 1-6.313 5.093.288.288 0 0 1-.216 0 14.062 14.062 0 0 1-6.313-5.093 13.99 13.99 0 0 1-2.455-7.943V3.857c0-.124.083-.235.201-.27l8.038-2.371a2.23 2.23 0 0 1 1.273 0l8.038 2.371a.283.283 0 0 1 .201.27v6.657z"/><path fill="#393939" d="M16.229 4.995l-5.99-1.767a.845.845 0 0 0-.478 0l-5.99 1.767a.848.848 0 0 0-.604.809v4.71c0 2.489.753 4.875 2.177 6.903a12.102 12.102 0 0 0 4.267 3.754.84.84 0 0 0 .781 0 12.102 12.102 0 0 0 4.267-3.754 11.94 11.94 0 0 0 2.178-6.903v-4.71a.854.854 0 0 0-.608-.809zm-.519 5.519c0 2.256-.682 4.42-1.973 6.256a10.986 10.986 0 0 1-3.736 3.334 10.962 10.962 0 0 1-3.737-3.334 10.82 10.82 0 0 1-1.973-6.256v-4.5l5.71-1.684 5.709 1.684v4.5z"/></svg>