<svg xmlns="http://www.w3.org/2000/svg" width="62" height="62"><path fill="#393939" d="M31 62C13.906 62 0 48.093 0 31 0 13.906 13.906 0 31 0c17.093 0 31 13.906 31 31 0 17.093-13.907 31-31 31zm0-60.772C14.583 1.228 1.228 14.583 1.228 31c0 16.417 13.355 29.772 29.772 29.772 16.416 0 29.771-13.355 29.771-29.772C60.771 14.583 47.416 1.228 31 1.228z"/><path fill="#393939" d="M39.314 21.197c.043.347.073.697.073 1.056 0 .064-.008.127-.01.191h4.166c.055.5.176.989.359 1.455h-4.679c-.086.43-.212.844-.359 1.247h1.978a5.681 5.681 0 0 0 5.015 5.014v6.804a5.681 5.681 0 0 0-5.015 5.014H18.455a5.681 5.681 0 0 0-5.016-5.014v-6.803a5.683 5.683 0 0 0 5.016-5.015h4.68a8.266 8.266 0 0 1-.359-1.247h-1.979c.184-.466.306-.955.36-1.455h1.464c-.002-.064-.01-.127-.01-.191 0-.359.029-.709.073-1.056h-7.79v2.702h-2.701v19.326h34.911v-2.702h2.701V21.197H39.314zm-23.172 1.247H19.9a4.356 4.356 0 0 1-.474 1.455h-3.285v-1.455zm-2.703 2.702h3.759a4.436 4.436 0 0 1-3.759 3.758v-3.758zm0 16.832V38.22a4.437 4.437 0 0 1 3.759 3.758h-3.759zm32.418 0H42.1a4.437 4.437 0 0 1 3.758-3.758v3.758zm0-13.074a4.436 4.436 0 0 1-3.758-3.758h3.758v3.758zm2.702 10.372h-1.454v-3.285a4.422 4.422 0 0 1 1.454-.475v3.76zm0-5.015c-.5.055-.988.176-1.454.359V27.1c.466.184.954.305 1.454.36v6.801zm.001-8.058a4.395 4.395 0 0 1-1.455-.474v-1.83h-1.831a4.449 4.449 0 0 1-.474-1.455h3.76v3.759z"/><path fill="#393939" d="M31 31.255c-4.964 0-9.003-4.039-9.003-9.002S26.036 13.25 31 13.25s9.002 4.039 9.002 9.002-4.038 9.003-9.002 9.003zm0-16.777c-4.287 0-7.775 3.487-7.775 7.774s3.488 7.774 7.775 7.774c4.286 0 7.774-3.488 7.774-7.774 0-4.287-3.488-7.774-7.774-7.774z"/><path fill="#393939" d="M34.655 19.526a.707.707 0 0 0-1.001.001l-3.948 3.948-1.362-1.361a.7.7 0 0 0-.5-.208.71.71 0 0 0-.501 1.21l1.862 1.862a.704.704 0 0 0 1.002 0l4.449-4.449a.707.707 0 0 0-.001-1.003z"/></svg>