<?xml version="1.0" encoding="utf-8"?>
<!-- Generator: Adobe Illustrator 16.0.0, SVG Export Plug-In . SVG Version: 6.00 Build 0)  -->
<!DOCTYPE svg PUBLIC "-//W3C//DTD SVG 1.1//EN" "http://www.w3.org/Graphics/SVG/1.1/DTD/svg11.dtd">
<svg version="1.1" id="Слой_1" xmlns="http://www.w3.org/2000/svg" xmlns:xlink="http://www.w3.org/1999/xlink" x="0px" y="0px"
	 width="27px" height="17.198px" viewBox="0 0 27 17.198" enable-background="new 0 0 27 17.198" xml:space="preserve">
<path fill="#393939" d="M27,7.136c0,3.934-3.2,7.136-7.135,7.136H2.635l1.61,1.61c0.302,0.302,0.302,0.789,0,1.092
	c-0.301,0.301-0.789,0.301-1.09,0L0.231,14.05c-0.073-0.072-0.131-0.158-0.173-0.254c-0.052-0.127-0.069-0.263-0.052-0.393l0,0
	v-0.001V13.4l0,0c0.004-0.032,0.01-0.063,0.018-0.093v-0.002c0.033-0.127,0.099-0.245,0.193-0.343l0,0c0,0,0-0.001,0.001-0.001
	c0,0,0,0,0.001-0.002c0,0,0.002,0,0.001,0c0.001-0.001,0.002-0.002,0.002-0.002c0.001-0.001,0.002-0.001,0.002-0.001
	c0.001-0.001,0.001-0.002,0.001-0.002l0.002-0.001l2.928-2.925c0.301-0.301,0.789-0.301,1.09,0c0.15,0.15,0.226,0.348,0.226,0.545
	c0,0.198-0.075,0.395-0.226,0.546l-1.61,1.609h17.23c3.083,0,5.592-2.509,5.592-5.593c0-3.084-2.509-5.593-5.592-5.593h-6.364
	c-0.426,0-0.771-0.346-0.771-0.772C12.729,0.345,13.075,0,13.501,0h6.364C23.8,0,27,3.201,27,7.136z"/>
</svg>
