<?xml version="1.0" encoding="utf-8"?>
<!-- Generator: Adobe Illustrator 16.0.0, SVG Export Plug-In . SVG Version: 6.00 Build 0)  -->
<!DOCTYPE svg PUBLIC "-//W3C//DTD SVG 1.1//EN" "http://www.w3.org/Graphics/SVG/1.1/DTD/svg11.dtd">
<svg version="1.1" id="Слой_1" xmlns="http://www.w3.org/2000/svg" xmlns:xlink="http://www.w3.org/1999/xlink" x="0px" y="0px"
	 width="62.114px" height="47.556px" viewBox="0 0 62.114 47.556" enable-background="new 0 0 62.114 47.556" xml:space="preserve">
<g>
	<path fill="#393939" d="M62.114,19.137c0-2.672-2.174-4.846-4.846-4.846h-6.813V4.844C50.456,2.173,48.282,0,45.611,0H4.845
		C2.173,0,0,2.173,0,4.844v23.572c0,2.673,2.173,4.846,4.845,4.846h6.813v9.45c0,2.671,2.173,4.844,4.844,4.844h40.767
		c2.672,0,4.846-2.173,4.846-4.844V19.137z M2.183,4.844c0-1.469,1.195-2.663,2.662-2.663h40.767c1.468,0,2.661,1.194,2.661,2.663
		v2.503H2.183V4.844z M12.124,17.069c-0.31,0.649-0.466,1.346-0.466,2.067v11.942H4.845c-1.467,0-2.662-1.195-2.662-2.663V16.483
		h10.219L12.124,17.069z M2.593,14.299h-0.41V9.533h46.09v4.758L2.593,14.299z M59.931,42.712c0,1.467-1.194,2.661-2.662,2.661
		H16.502c-1.467,0-2.66-1.194-2.66-2.661V19.137c0-1.373,1.073-2.538,2.442-2.651l0.035-0.002h33.044
		c0.035,0,0.07-0.001,0.104-0.006l7.801-0.005c1.468,0,2.662,1.196,2.662,2.665V42.712z"/>
	<path fill="#393939" d="M46.557,23.674c-0.25-0.248-0.583-0.387-0.937-0.387s-0.687,0.139-0.937,0.389L32.997,35.361l-4.348-4.349
		c-0.251-0.249-0.584-0.387-0.938-0.387s-0.687,0.138-0.937,0.387c-0.517,0.518-0.517,1.355,0,1.873l5.285,5.286
		c0.249,0.249,0.582,0.387,0.937,0.387l0,0c0.354,0,0.687-0.138,0.938-0.387l12.622-12.624c0.251-0.25,0.389-0.583,0.389-0.936
		C46.945,24.258,46.808,23.925,46.557,23.674z"/>
</g>
</svg>
