<?xml version="1.0" encoding="utf-8"?>
<!-- Generator: Adobe Illustrator 16.0.0, SVG Export Plug-In . SVG Version: 6.00 Build 0)  -->
<!DOCTYPE svg PUBLIC "-//W3C//DTD SVG 1.1//EN" "http://www.w3.org/Graphics/SVG/1.1/DTD/svg11.dtd">
<svg version="1.1" id="Слой_1" xmlns="http://www.w3.org/2000/svg" xmlns:xlink="http://www.w3.org/1999/xlink" x="0px" y="0px"
	 width="13px" height="16.821px" viewBox="0 0 13 16.821" enable-background="new 0 0 13 16.821" xml:space="preserve">
<path fill="#393939" d="M0.764,16.821h11.471c0.423,0,0.766-0.342,0.766-0.764V6.882c0-0.421-0.343-0.764-0.766-0.764h-1.528V4.205
	C10.706,1.886,8.817,0,6.499,0S2.294,1.886,2.294,4.205v1.913h-1.53C0.343,6.118,0,6.461,0,6.882v9.176
	C0,16.479,0.343,16.821,0.764,16.821z M3.824,4.205c0-1.475,1.201-2.675,2.675-2.675c1.477,0,2.677,1.201,2.677,2.675v1.913H3.824
	V4.205z M1.53,7.646h1.528H9.94h1.53v7.648H1.53V7.646z"/>
</svg>
