<?xml version="1.0" encoding="utf-8"?>
<!-- Generator: Adobe Illustrator 16.0.0, SVG Export Plug-In . SVG Version: 6.00 Build 0)  -->
<!DOCTYPE svg PUBLIC "-//W3C//DTD SVG 1.1//EN" "http://www.w3.org/Graphics/SVG/1.1/DTD/svg11.dtd">
<svg version="1.1" id="Слой_1" xmlns="http://www.w3.org/2000/svg" xmlns:xlink="http://www.w3.org/1999/xlink" x="0px" y="0px"
	 width="16px" height="14.677px" viewBox="0 0 16 14.677" enable-background="new 0 0 16 14.677" xml:space="preserve">
<g>
	<path fill="#393939" d="M13.769,0H6.035H4.714H2.232C1.001,0,0,1.001,0,2.232v10.212c0,1.231,1.001,2.232,2.232,2.232h1.696H5.25
		h7.608h0.91C15,14.677,16,13.676,16,12.444V2.232C16,1.001,15,0,13.769,0z M14.68,12.444c0,0.503-0.408,0.912-0.911,0.912h-0.91
		h-0.464H2.232c-0.503,0-0.911-0.409-0.911-0.912V4.463H14.68V12.444z M14.68,3.143H1.321V2.232c0-0.502,0.408-0.911,0.911-0.911
		h11.536c0.503,0,0.911,0.409,0.911,0.911V3.143z"/>
</g>
</svg>
