<?xml version="1.0" encoding="utf-8"?>
<!-- Generator: Adobe Illustrator 16.0.0, SVG Export Plug-In . SVG Version: 6.00 Build 0)  -->
<!DOCTYPE svg PUBLIC "-//W3C//DTD SVG 1.1//EN" "http://www.w3.org/Graphics/SVG/1.1/DTD/svg11.dtd">
<svg version="1.1" id="Слой_1" xmlns="http://www.w3.org/2000/svg" xmlns:xlink="http://www.w3.org/1999/xlink" x="0px" y="0px"
	 width="37px" height="37px" viewBox="0 0 37 37" enable-background="new 0 0 37 37" xml:space="preserve">
<path fill="#393939" d="M18.5,0C8.282,0,0,8.283,0,18.5S8.282,37,18.5,37C28.717,37,37,28.717,37,18.5S28.717,0,18.5,0z
	 M16.765,9.875c0-0.196,0.07-0.365,0.214-0.507c0.142-0.143,0.311-0.214,0.507-0.214h2.029c0.195,0,0.364,0.071,0.507,0.214
	s0.214,0.311,0.214,0.507v11.855c0,0.196-0.071,0.365-0.214,0.507c-0.143,0.143-0.312,0.215-0.507,0.215h-2.029
	c-0.196,0-0.365-0.072-0.507-0.215c-0.144-0.142-0.214-0.311-0.214-0.507V9.875z M20.369,27.125c0,0.196-0.071,0.365-0.214,0.508
	s-0.312,0.213-0.508,0.213h-2.296c-0.196,0-0.365-0.07-0.507-0.213c-0.143-0.143-0.214-0.312-0.214-0.508v-2.35
	c0-0.195,0.071-0.365,0.214-0.508c0.142-0.143,0.311-0.213,0.507-0.213h2.296c0.196,0,0.365,0.07,0.508,0.213
	s0.214,0.313,0.214,0.508V27.125z"/>
</svg>
