<?xml version="1.0" encoding="utf-8"?>
<!-- Generator: Adobe Illustrator 16.0.0, SVG Export Plug-In . SVG Version: 6.00 Build 0)  -->
<!DOCTYPE svg PUBLIC "-//W3C//DTD SVG 1.1//EN" "http://www.w3.org/Graphics/SVG/1.1/DTD/svg11.dtd">
<svg version="1.1" id="Слой_1" xmlns="http://www.w3.org/2000/svg" xmlns:xlink="http://www.w3.org/1999/xlink" x="0px" y="0px"
	 width="37px" height="37px" viewBox="0 0 37 37" enable-background="new 0 0 37 37" xml:space="preserve">
<path fill="#393939" d="M18.5,0C8.283,0,0,8.283,0,18.5C0,28.718,8.283,37,18.5,37S37,28.718,37,18.5C37,8.283,28.717,0,18.5,0z
	 M26.167,14.887l-9.328,9.328c-0.281,0.28-0.654,0.435-1.051,0.435c-0.398,0-0.771-0.154-1.052-0.436l-3.904-3.904
	c-0.579-0.58-0.579-1.522,0-2.101c0.278-0.281,0.652-0.436,1.05-0.436s0.771,0.155,1.051,0.436l2.855,2.855l8.278-8.278
	c0.28-0.281,0.653-0.435,1.05-0.435c0.396,0,0.769,0.154,1.05,0.433c0.282,0.283,0.437,0.656,0.437,1.053
	C26.603,14.234,26.448,14.607,26.167,14.887z"/>
</svg>
