<?xml version="1.0" encoding="utf-8"?>
<!-- Generator: Adobe Illustrator 16.0.0, SVG Export Plug-In . SVG Version: 6.00 Build 0)  -->
<!DOCTYPE svg PUBLIC "-//W3C//DTD SVG 1.1//EN" "http://www.w3.org/Graphics/SVG/1.1/DTD/svg11.dtd">
<svg version="1.1" id="Слой_1" xmlns="http://www.w3.org/2000/svg" xmlns:xlink="http://www.w3.org/1999/xlink" x="0px" y="0px"
	 width="24.001px" height="18.457px" viewBox="0 0 24.001 18.457" enable-background="new 0 0 24.001 18.457" xml:space="preserve">
<g>
	<path fill="#393939" d="M18.372,0.933C17.999,0.42,17.176,0,16.541,0H1.153C0.52,0,0,0.519,0,1.153v1.828l19.859,0L18.372,0.933z"
		/>
	<path fill="#393939" d="M23.721,8.295l-2.428-3.342L0,4.954v12.349c0,0.635,0.52,1.154,1.153,1.154h15.388
		c0.635,0,1.458-0.42,1.831-0.934l5.349-7.362C24.094,9.648,24.094,8.808,23.721,8.295z M4.03,15.927H3.123
		c-0.503,0-0.908-0.407-0.908-0.908s0.405-0.908,0.908-0.908H4.03c0.503,0,0.908,0.407,0.908,0.908S4.533,15.927,4.03,15.927z
		 M11.104,15.927h-3.85c-0.502,0-0.907-0.407-0.907-0.908s0.405-0.908,0.907-0.908h3.85c0.503,0,0.907,0.407,0.907,0.908
		S11.606,15.927,11.104,15.927z M11.292,11.389H3.123c-0.503,0-0.908-0.407-0.908-0.908S2.62,9.573,3.123,9.573h8.169
		c0.502,0,0.907,0.407,0.907,0.908S11.794,11.389,11.292,11.389z"/>
</g>
</svg>
