<?xml version="1.0" encoding="UTF-8" standalone="no"?>
<!-- Generator: Adobe Illustrator 16.0.0, SVG Export Plug-In . SVG Version: 6.00 Build 0)  -->

<svg
   xmlns:dc="http://purl.org/dc/elements/1.1/"
   xmlns:cc="http://creativecommons.org/ns#"
   xmlns:rdf="http://www.w3.org/1999/02/22-rdf-syntax-ns#"
   xmlns:svg="http://www.w3.org/2000/svg"
   xmlns="http://www.w3.org/2000/svg"
   xmlns:sodipodi="http://sodipodi.sourceforge.net/DTD/sodipodi-0.dtd"
   xmlns:inkscape="http://www.inkscape.org/namespaces/inkscape"
   version="1.1"
   id="Шар_1"
   x="0px"
   y="0px"
   width="233px"
   height="44.59px"
   viewBox="81.874 15.669 233 44.59"
   enable-background="new 81.874 15.669 233 44.59"
   xml:space="preserve"
   sodipodi:docname="logo-img.svg"
   inkscape:version="0.92.1 r15371"><metadata
     id="metadata3753"><rdf:RDF><cc:Work
         rdf:about=""><dc:format>image/svg+xml</dc:format><dc:type
           rdf:resource="http://purl.org/dc/dcmitype/StillImage" /><dc:title></dc:title></cc:Work></rdf:RDF></metadata><defs
     id="defs3751" /><sodipodi:namedview
     pagecolor="#ffffff"
     bordercolor="#666666"
     borderopacity="1"
     objecttolerance="10"
     gridtolerance="10"
     guidetolerance="10"
     inkscape:pageopacity="0"
     inkscape:pageshadow="2"
     inkscape:window-width="1920"
     inkscape:window-height="1017"
     id="namedview3749"
     showgrid="false"
     inkscape:zoom="7.5751073"
     inkscape:cx="116.5"
     inkscape:cy="22.295"
     inkscape:window-x="-8"
     inkscape:window-y="-8"
     inkscape:window-maximized="1"
     inkscape:current-layer="g3738" /><g
     id="g3746"><g
       id="g3738"><path
         fill="#003764"
         d="M147.27,42.608V19.427h4.625l6.704,9.688l6.705-9.688h4.624v23.181h-4.183V25.479l-7.166,10.255    l-7.167-10.255v17.149h-4.141V42.608z"
         id="path3722" /><path
         fill="#003764"
         d="M173.435,19.427h5.044l6.137,9.414l6.115-9.414h5.044l-9.058,13.238v9.942h-4.182v-9.942L173.435,19.427z"
         id="path3724" /><path
         fill="#0055B8"
         d="M199.011,36.008c-0.441-1.429-0.651-3.108-0.651-5c0-1.893,0.209-3.573,0.651-5.001    c0.441-1.43,1.01-2.584,1.703-3.449c0.693-0.862,1.534-1.555,2.521-2.08c0.987-0.547,1.956-0.903,2.879-1.071    c0.945-0.189,1.954-0.274,3.047-0.274c2.375,0,4.709,0.462,7.02,1.366v3.91c-2.208-1.008-4.414-1.535-6.663-1.535    c-1.05,0-1.934,0.084-2.669,0.273c-0.735,0.19-1.471,0.546-2.164,1.071c-0.715,0.527-1.239,1.368-1.62,2.501    c-0.377,1.136-0.544,2.566-0.544,4.269c0,1.722,0.188,3.149,0.544,4.265c0.359,1.134,0.905,1.954,1.62,2.502    c0.714,0.526,1.429,0.883,2.164,1.072c0.735,0.189,1.642,0.272,2.669,0.272c2.229,0,4.455-0.503,6.663-1.535v3.889    c-2.312,0.924-4.665,1.387-7.02,1.387c-1.093,0-2.102-0.085-3.047-0.275c-0.945-0.188-1.892-0.545-2.879-1.07    c-0.987-0.546-1.828-1.239-2.521-2.08C200.021,38.594,199.453,37.439,199.011,36.008z"
         id="path3726" /><path
         fill="#0055B8"
         d="M221.077,42.608V19.427h8.912c2.712,0,4.834,0.651,6.326,1.932c1.514,1.282,2.27,3.133,2.27,5.528    c0,3.532-1.702,5.821-5.085,6.853l6.094,8.868h-5.044l-5.527-8.175h-3.741v8.175H221.077z M225.261,30.606h4.623    c1.407,0,2.521-0.25,3.319-0.756c0.799-0.501,1.199-1.45,1.199-2.856c0-1.43-0.4-2.397-1.199-2.88    c-0.798-0.504-1.911-0.735-3.319-0.735h-4.623V30.606L225.261,30.606z"
         id="path3728" /><path
         fill="#0055B8"
         d="M243.777,42.608V19.427h15.426v3.74H247.96v5.862h9.75v3.931h-9.75v5.864h11.243v3.738h-15.426V42.608z"
         id="path3730" /><path
         fill="#0055B8"
         d="M264.204,42.608V19.427h8.007c3.593,0,6.306,0.987,8.177,2.964c1.849,1.975,2.793,4.854,2.793,8.658    c0,3.782-0.923,6.662-2.773,8.614c-1.849,1.977-4.581,2.965-8.176,2.965h-8.027V42.608L264.204,42.608z M268.366,38.867h3.824    c2.417,0,4.14-0.612,5.191-1.829c1.05-1.22,1.597-3.216,1.597-5.989c0-2.793-0.525-4.813-1.597-6.033    c-1.052-1.216-2.796-1.828-5.191-1.828h-3.824V38.867z"
         id="path3732" /><path
         fill="#0055B8"
         d="M288.288,42.608V19.427h4.184v23.181H288.288z"
         id="path3734" /><path
         fill="#0055B8"
         d="M295.875,23.608v-4.181h18.999v4.181h-7.44v19h-4.183v-19H295.875z"
         id="path3736" /></g><g
       id="g3744"><path
         fill="#003764"
         d="M120.973,17.655c-0.792-1.093-2.547-1.986-3.897-1.986H84.328c-1.351,0-2.455,1.104-2.455,2.455v3.89    l42.267,0L120.973,17.655z"
         id="path3740" /><path
         fill="#0055B8"
         d="M132.357,33.323l-5.167-7.111l-45.317,0v26.282c0,1.351,1.104,2.455,2.455,2.455h32.749    c1.35,0,3.104-0.895,3.897-1.986l11.384-15.668C133.15,36.201,133.15,34.415,132.357,33.323z M90.45,49.567h-1.931    c-1.069,0-1.932-0.868-1.932-1.934c0-1.066,0.863-1.933,1.932-1.933h1.931c1.069,0,1.932,0.866,1.932,1.933    C92.383,48.698,91.52,49.567,90.45,49.567z M105.505,49.567h-8.194c-1.068,0-1.931-0.868-1.931-1.934    c0-1.066,0.862-1.933,1.931-1.933h8.194c1.068,0,1.931,0.866,1.931,1.933C107.436,48.698,106.573,49.567,105.505,49.567z     M105.906,39.907H88.519c-1.069,0-1.932-0.867-1.932-1.933s0.863-1.934,1.932-1.934h17.386c1.069,0,1.932,0.868,1.932,1.934    C107.837,39.04,106.974,39.907,105.906,39.907z"
         id="path3742" /></g></g></svg>