<?xml version="1.0" encoding="utf-8"?>
<!-- Generator: Adobe Illustrator 16.0.0, SVG Export Plug-In . SVG Version: 6.00 Build 0)  -->
<!DOCTYPE svg PUBLIC "-//W3C//DTD SVG 1.1//EN" "http://www.w3.org/Graphics/SVG/1.1/DTD/svg11.dtd">
<svg version="1.1" id="Слой_1" xmlns="http://www.w3.org/2000/svg" xmlns:xlink="http://www.w3.org/1999/xlink" x="0px" y="0px"
	 width="17.673px" height="16.874px" viewBox="0 0 17.673 16.874" enable-background="new 0 0 17.673 16.874" xml:space="preserve">
<g>
	<g>
		<path fill="#393939" d="M17.647,6.377c-0.059-0.178-0.211-0.305-0.396-0.334l-5.514-0.784l-2.48-4.987
			C9.174,0.105,9.003,0,8.818,0l0,0C8.634,0,8.463,0.105,8.379,0.276L5.932,5.277l-5.515,0.82C0.232,6.126,0.08,6.253,0.022,6.431
			c-0.059,0.178-0.007,0.374,0.127,0.501L4.15,10.81l-0.926,5.491c-0.032,0.185,0.044,0.37,0.196,0.479
			c0.084,0.061,0.186,0.094,0.286,0.094c0.08,0,0.156-0.018,0.229-0.059l4.922-2.607l4.937,2.578
			c0.072,0.037,0.148,0.055,0.225,0.055l0,0c0.269,0,0.49-0.221,0.49-0.488c0-0.041-0.004-0.076-0.015-0.113l-0.954-5.459
			l3.976-3.899C17.658,6.75,17.705,6.554,17.647,6.377z M12.678,10.261c-0.116,0.113-0.167,0.276-0.138,0.436l0.83,4.764
			l-4.287-2.238c-0.142-0.076-0.312-0.072-0.457,0l-4.272,2.263l0.801-4.77c0.025-0.159-0.024-0.319-0.142-0.431L1.546,6.917
			L6.33,6.206c0.159-0.025,0.298-0.124,0.366-0.268l2.125-4.342l2.155,4.331c0.072,0.146,0.21,0.243,0.37,0.269l4.788,0.682
			L12.678,10.261z"/>
	</g>
</g>
</svg>
