<?xml version="1.0" encoding="utf-8"?>
<!-- Generator: Adobe Illustrator 16.0.0, SVG Export Plug-In . SVG Version: 6.00 Build 0)  -->
<!DOCTYPE svg PUBLIC "-//W3C//DTD SVG 1.1//EN" "http://www.w3.org/Graphics/SVG/1.1/DTD/svg11.dtd">
<svg version="1.1" id="Слой_1" xmlns="http://www.w3.org/2000/svg" xmlns:xlink="http://www.w3.org/1999/xlink" x="0px" y="0px"
	 width="23.33px" height="17.933px" viewBox="0 0 23.33 17.933" enable-background="new 0 0 23.33 17.933" xml:space="preserve">
<g>
	<g>
		<g>
			<path fill="#393939" d="M21.38,5.298h-2.374V1.947C19.006,0.874,18.132,0,17.059,0H1.947C0.873,0-0.001,0.874-0.001,1.947v8.739
				c0,1.075,0.874,1.948,1.948,1.948H4.32v3.352c0,1.074,0.874,1.947,1.948,1.947H21.38c1.074,0,1.948-0.873,1.948-1.947v-8.74
				C23.329,6.172,22.455,5.298,21.38,5.298z M1.112,1.947c0-0.459,0.374-0.835,0.835-0.835h15.112c0.46,0,0.835,0.375,0.835,0.835
				v0.777H1.112V1.947z M4.32,7.246v4.275H1.947c-0.461,0-0.835-0.375-0.835-0.835V6.415h3.396C4.387,6.667,4.32,6.948,4.32,7.246z
				 M1.112,5.301V3.837h16.782v1.461H6.268c-0.038,0-0.075,0.001-0.111,0.002H1.112z M21.38,16.821H6.268
				c-0.461,0-0.835-0.375-0.835-0.835v-8.74c0-0.438,0.338-0.796,0.767-0.832h12.25c0.021,0,0.041-0.001,0.061-0.004h2.87
				c0.46,0,0.835,0.375,0.835,0.835v8.74l0,0C22.215,16.446,21.841,16.821,21.38,16.821z"/>
		</g>
	</g>
	<g>
		<g>
			<path fill="#393939" d="M15.5,8.933c-0.633,0-1.215,0.221-1.675,0.589c-0.47-0.379-1.057-0.589-1.678-0.589
				c-1.479,0-2.683,1.204-2.683,2.684c0,1.479,1.204,2.682,2.683,2.682c0.621,0,1.208-0.209,1.678-0.589
				c0.46,0.368,1.042,0.589,1.675,0.589c1.479,0,2.683-1.203,2.683-2.682C18.183,10.137,16.98,8.933,15.5,8.933z M13.119,12.848
				c-0.273,0.218-0.612,0.338-0.971,0.338c-0.865,0-1.569-0.704-1.569-1.569c0-0.867,0.704-1.571,1.569-1.571
				c0.358,0,0.697,0.12,0.971,0.337c-0.191,0.369-0.301,0.789-0.301,1.234C12.818,12.06,12.927,12.479,13.119,12.848z M15.5,13.186
				c-0.866,0-1.569-0.704-1.569-1.569c0-0.867,0.704-1.571,1.569-1.571s1.57,0.704,1.57,1.571
				C17.071,12.482,16.366,13.186,15.5,13.186z"/>
		</g>
	</g>
</g>
</svg>
