<?xml version="1.0" encoding="utf-8"?>
<!-- Generator: Adobe Illustrator 16.0.0, SVG Export Plug-In . SVG Version: 6.00 Build 0)  -->
<!DOCTYPE svg PUBLIC "-//W3C//DTD SVG 1.1//EN" "http://www.w3.org/Graphics/SVG/1.1/DTD/svg11.dtd">
<svg version="1.1" id="Слой_1" xmlns="http://www.w3.org/2000/svg" xmlns:xlink="http://www.w3.org/1999/xlink" x="0px" y="0px"
	 width="17.634px" height="18.507px" viewBox="0 0 17.634 18.507" enable-background="new 0 0 17.634 18.507" xml:space="preserve">
<g>
	<g>
		<path fill="#393939" d="M8.794,1.071c2.015,0,3.593,1.888,3.593,4.298c0,2.489-1.611,4.514-3.593,4.514
			c-1.98,0-3.592-2.025-3.592-4.514C5.202,2.959,6.779,1.071,8.794,1.071 M4.227,12.316c0.143,0,0.313,0.047,0.49,0.131
			c0.101,0.057,0.341,0.303,0.471,0.436C5.303,13,5.423,13.123,5.54,13.228c0.533,0.479,1.489,1.055,3.019,1.085h0.01h0.011h0.729
			h0.01h0.011c1.528-0.03,2.484-0.606,3.017-1.085c0.133-0.118,0.263-0.256,0.389-0.391c0.129-0.137,0.344-0.365,0.43-0.416
			c0.137-0.068,0.265-0.105,0.369-0.105c0.06,0,0.216,0,0.446,0.264c1.102,1.252,2.024,3.561,2.033,3.582l0.011,0.027l0.012,0.025
			l0.404,0.88c0.048,0.105,0.083,0.222,0.104,0.315c-0.063,0.016-0.144,0.027-0.238,0.027h-0.017l-0.046-0.004h-0.045H1.541H1.517
			l-0.035,0.002H1.454c-0.147,0-0.281-0.023-0.369-0.051c0.019-0.097,0.053-0.22,0.102-0.332l0.392-0.892
			c0.01-0.022,1.036-2.306,2.157-3.581C3.939,12.347,4.099,12.316,4.227,12.316 M8.794,0C6.218,0,4.131,2.286,4.131,5.369
			c0,3.084,2.087,5.585,4.663,5.585s4.664-2.501,4.664-5.585C13.458,2.286,11.37,0,8.794,0L8.794,0z M4.227,11.246
			c-0.425,0-0.882,0.156-1.296,0.627c-1.24,1.412-2.33,3.852-2.33,3.852l-0.395,0.898c-0.161,0.365-0.324,1.023-0.09,1.347
			c0.357,0.493,1.088,0.537,1.338,0.537c0.055,0,0.087-0.002,0.087-0.002h14.655c0,0,0.04,0.003,0.107,0.003
			c0.255,0,0.896-0.049,1.218-0.512c0.229-0.328,0.058-0.982-0.109-1.348l-0.404-0.88c0,0-0.983-2.483-2.225-3.896
			c-0.413-0.471-0.851-0.627-1.251-0.627c-0.317,0-0.61,0.1-0.849,0.219c-0.358,0.179-0.755,0.699-1.054,0.967
			c-0.41,0.369-1.137,0.788-2.322,0.811H8.579c-1.187-0.022-1.913-0.441-2.324-0.811c-0.299-0.268-0.707-0.773-1.068-0.946
			C4.919,11.357,4.584,11.246,4.227,11.246L4.227,11.246z"/>
	</g>
</g>
</svg>
