<?xml version="1.0" encoding="utf-8"?>
<!-- Generator: Adobe Illustrator 16.0.0, SVG Export Plug-In . SVG Version: 6.00 Build 0)  -->
<!DOCTYPE svg PUBLIC "-//W3C//DTD SVG 1.1//EN" "http://www.w3.org/Graphics/SVG/1.1/DTD/svg11.dtd">
<svg version="1.1" id="Слой_1" xmlns="http://www.w3.org/2000/svg" xmlns:xlink="http://www.w3.org/1999/xlink" x="0px" y="0px"
	 width="30.205px" height="31.507px" viewBox="0 0 30.205 31.507" enable-background="new 0 0 30.205 31.507" xml:space="preserve">
<g>
	<g>
		<path fill="#352E7F" d="M8.404,0.31h2.223l-6.031,9.797H1.972L1.735,2.355C1.724,2.003,1.715,1.64,1.581,1.357
			C1.449,1.076,1.24,0.879,0.964,0.743C0.688,0.605,0.342,0.528,0,0.532V0.31h4.328L4.54,6.979L8.404,0.31"/>
		<polyline fill="#352E7F" points="11.058,10.107 14.154,0.31 11.398,0.31 8.301,10.107 11.058,10.107 		"/>
		<path fill="#352E7F" d="M12.658,9.277c0.418,0.425,0.957,0.72,1.693,0.865c0.736,0.146,1.671,0.142,2.556-0.01
			c0.886-0.151,1.723-0.448,2.313-0.899c0.592-0.451,0.938-1.056,1.106-1.709c0.168-0.655,0.159-1.359-0.196-1.908
			c-0.354-0.549-1.056-0.944-1.639-1.317c-0.584-0.372-1.049-0.722-1.243-1.116c-0.193-0.394-0.114-0.832,0.112-1.112
			c0.227-0.281,0.601-0.405,1.061-0.434s1.006,0.038,1.459,0.165c0.453,0.126,0.813,0.314,1.121,0.568l0.919-1.468
			c-0.427-0.305-0.911-0.522-1.596-0.682s-1.569-0.262-2.338-0.205c-0.769,0.057-1.422,0.273-2.001,0.656s-1.083,0.933-1.366,1.526
			s-0.345,1.228-0.172,1.777c0.174,0.55,0.583,1.013,1.005,1.345c0.421,0.333,0.856,0.534,1.238,0.764
			c0.383,0.23,0.712,0.489,0.889,0.8c0.178,0.311,0.201,0.674-0.012,0.975c-0.213,0.301-0.664,0.541-1.185,0.625
			c-0.52,0.085-1.108,0.016-1.655-0.15s-1.054-0.429-1.493-0.776L12.658,9.277"/>
		<path fill="#352E7F" d="M22.976,7.839l-1.247,2.268h-2.224l5.914-9.797h2.505l0.844,9.797H26.16l-0.184-2.268H22.976
			 M25.592,3.083l-1.915,3.482h2.196L25.592,3.083"/>
		<path fill="#352E7F" d="M29.675,0.485c-0.048-0.059-0.12-0.084-0.19-0.084h-0.403v0.96h0.093V0.95h0.205l0.279,0.412h0.115
			L29.501,0.95c0.056,0.007,0.114-0.01,0.159-0.053c0.046-0.042,0.077-0.108,0.082-0.186C29.746,0.634,29.723,0.544,29.675,0.485
			 M29.174,0.839V0.517h0.276c0.038,0,0.08-0.002,0.11,0.025c0.03,0.028,0.049,0.076,0.051,0.126
			c0.002,0.052-0.012,0.107-0.043,0.14c-0.03,0.033-0.076,0.031-0.118,0.031H29.174 M29.805,0.167
			c-0.12-0.07-0.26-0.107-0.399-0.107s-0.278,0.037-0.399,0.107c-0.12,0.069-0.223,0.171-0.292,0.292
			c-0.07,0.121-0.107,0.26-0.107,0.4s0.037,0.279,0.107,0.399c0.069,0.12,0.172,0.223,0.292,0.292
			c0.121,0.07,0.26,0.107,0.399,0.107s0.279-0.037,0.399-0.107c0.121-0.07,0.224-0.172,0.293-0.292
			c0.07-0.12,0.107-0.26,0.107-0.399s-0.037-0.279-0.107-0.4C30.028,0.338,29.926,0.236,29.805,0.167 M29.98,0.528
			c0.058,0.1,0.088,0.216,0.088,0.333s-0.03,0.232-0.088,0.333c-0.059,0.101-0.144,0.186-0.244,0.243
			c-0.101,0.059-0.217,0.089-0.333,0.089s-0.232-0.031-0.333-0.089c-0.1-0.058-0.185-0.143-0.243-0.243
			c-0.058-0.101-0.089-0.217-0.089-0.333s0.031-0.232,0.089-0.333c0.059-0.101,0.144-0.186,0.243-0.244
			c0.101-0.059,0.217-0.089,0.333-0.089s0.232,0.031,0.333,0.089C29.837,0.342,29.922,0.427,29.98,0.528"/>
	</g>
	<g>
		<rect x="11.328" y="16.097" fill="#D4642B" width="7.549" height="13.565"/>
		<path fill="#C42028" d="M11.809,22.879c0-2.751,1.287-5.202,3.295-6.782c-1.469-1.155-3.32-1.845-5.332-1.845
			c-4.765,0-8.627,3.863-8.627,8.627c0,4.766,3.862,8.628,8.627,8.628c2.012,0,3.863-0.689,5.332-1.845
			C13.096,28.082,11.809,25.632,11.809,22.879"/>
		<path fill="#E29C2F" d="M29.061,22.879c0,4.766-3.862,8.627-8.627,8.627c-2.012,0-3.863-0.688-5.33-1.844
			c2.006-1.58,3.294-4.031,3.294-6.783s-1.288-5.203-3.294-6.782c1.467-1.155,3.318-1.845,5.33-1.845
			C25.198,14.252,29.061,18.115,29.061,22.879 M28.238,28.225v-0.277h0.111v-0.057h-0.285v0.057h0.111v0.277H28.238z M28.791,28.225
			v-0.334h-0.088l-0.1,0.23l-0.102-0.23h-0.087v0.334h0.062v-0.252l0.094,0.218h0.064l0.095-0.219v0.253H28.791z"/>
	</g>
</g>
</svg>
