<?xml version="1.0" encoding="utf-8"?>
<!-- Generator: Adobe Illustrator 16.0.0, SVG Export Plug-In . SVG Version: 6.00 Build 0)  -->
<!DOCTYPE svg PUBLIC "-//W3C//DTD SVG 1.1//EN" "http://www.w3.org/Graphics/SVG/1.1/DTD/svg11.dtd">
<svg version="1.1" id="Слой_1" xmlns="http://www.w3.org/2000/svg" xmlns:xlink="http://www.w3.org/1999/xlink" x="0px" y="0px"
	 width="18.814px" height="21.688px" viewBox="0 0 18.814 21.688" enable-background="new 0 0 18.814 21.688" xml:space="preserve">
<g>
	<g>
		<g>
			<g>
				<path fill="#393939" d="M18.108,3.735L11.487,0.15C10.859-0.19,9.996,0.071,9.655,0.7L5.782,7.896H1.071
					c-0.602,0-1.072,0.471-1.072,1.073v1.885v9.761c0,0.602,0.471,1.073,1.072,1.073h15.048c0.603,0,1.073-0.472,1.073-1.073v-2.722
					h0.445c0.235,0,0.419-0.183,0.419-0.419v-3.113c0-0.236-0.184-0.42-0.419-0.42h-0.445V10.88c0-0.497-0.366-0.942-0.837-1.047
					l2.303-4.266C18.998,4.913,18.762,4.102,18.108,3.735z M13.397,2.139L9.262,9.807H8.085l4.422-8.139L13.397,2.139z
					 M10.415,1.092c0.131-0.235,0.444-0.34,0.68-0.209l0.654,0.367L7.143,9.807H5.704L10.415,1.092z M0.809,8.943
					c0-0.078,0.105-0.209,0.236-0.209h4.266L4.735,9.781H1.045c-0.079,0-0.157,0-0.236,0.026V8.943L0.809,8.943z M16.329,20.615
					c0,0.131-0.104,0.235-0.235,0.235H1.045c-0.131,0-0.236-0.104-0.236-0.235V10.88c0-0.13,0.105-0.235,0.236-0.235h3.951h1.676
					h3.062h5.888h0.445c0.131,0,0.235,0.105,0.235,0.235v3.062h-1.597l0,0c-0.706,0-1.256,0.576-1.256,1.256v1.44
					c0,0.706,0.576,1.256,1.256,1.256h1.623V20.615L16.329,20.615z M17.167,14.779h0.025v2.276h-0.025h-2.461
					c-0.235,0-0.418-0.183-0.418-0.418v-1.44c0-0.234,0.183-0.418,0.418-0.418H17.167z M17.899,5.148l-2.513,4.659h-5.182
					l3.926-7.25l3.559,1.937C17.951,4.599,18.03,4.913,17.899,5.148z"/>
			</g>
		</g>
	</g>
	<g>
		<g>
			<g>
				<path fill="#393939" d="M16.302,4.756l-0.209-0.105c-0.523-0.288-1.23-0.078-1.519,0.445l-0.262,0.497
					c-0.131,0.262-0.183,0.576-0.078,0.864c0.078,0.288,0.288,0.523,0.55,0.655l0.209,0.104c0.157,0.079,0.341,0.13,0.523,0.13
					c0.419,0,0.785-0.235,0.994-0.575l0.263-0.498C17.035,5.725,16.826,5.044,16.302,4.756z M16.014,5.881l-0.261,0.498
					c-0.079,0.131-0.263,0.183-0.394,0.104l-0.209-0.131c-0.053-0.026-0.104-0.104-0.131-0.157
					c-0.026-0.079-0.026-0.157,0.026-0.209l0.262-0.497c0.052-0.079,0.157-0.157,0.262-0.157c0.052,0,0.078,0,0.131,0.026
					l0.209,0.105C16.014,5.567,16.067,5.725,16.014,5.881z"/>
			</g>
		</g>
	</g>
</g>
</svg>
