<?xml version="1.0" encoding="utf-8"?>
<!-- Generator: Adobe Illustrator 16.0.0, SVG Export Plug-In . SVG Version: 6.00 Build 0)  -->
<!DOCTYPE svg PUBLIC "-//W3C//DTD SVG 1.1//EN" "http://www.w3.org/Graphics/SVG/1.1/DTD/svg11.dtd">
<svg version="1.1" id="Слой_1" xmlns="http://www.w3.org/2000/svg" xmlns:xlink="http://www.w3.org/1999/xlink" x="0px" y="0px"
	 width="17.388px" height="13.406px" viewBox="0 0 17.388 13.406" enable-background="new 0 0 17.388 13.406" xml:space="preserve">
<g>
	<path fill="#393939" d="M0.066,5.443h15.927c0.017,0,0.021,0,0.044-0.022s0.022-0.028,0.022-0.044V4.049
		c0-0.018,0-0.023-0.022-0.046c-0.021-0.021-0.027-0.021-0.044-0.021H0.066c-0.017,0-0.022,0-0.046,0.023
		c-0.021,0.022-0.021,0.027-0.021,0.044v1.328c0,0.016,0,0.021,0.022,0.043C0.043,5.443,0.049,5.443,0.066,5.443z"/>
	<path fill="#393939" d="M0.066,1.462H12.01c0.017,0,0.022,0,0.045-0.023c0.022-0.022,0.022-0.028,0.022-0.044V0.067
		c0-0.016,0-0.022-0.022-0.045C12.033,0,12.028,0,12.01,0H0.066C0.049,0,0.043,0,0.02,0.023C-0.001,0.044-0.001,0.05-0.001,0.067
		v1.328c0,0.017,0,0.022,0.022,0.044C0.043,1.462,0.049,1.462,0.066,1.462z"/>
	<path fill="#393939" d="M0.066,13.406h17.253c0.018,0,0.023,0,0.046-0.021c0.022-0.022,0.022-0.028,0.022-0.045v-1.328
		c0-0.016,0-0.021-0.023-0.044c-0.022-0.022-0.027-0.022-0.045-0.022H0.066c-0.018,0-0.022,0-0.044,0.021
		c-0.023,0.023-0.023,0.029-0.023,0.045v1.328c0,0.017,0,0.022,0.023,0.045C0.043,13.406,0.049,13.406,0.066,13.406z"/>
	<path fill="#393939" d="M0.066,9.424h13.272c0.017,0,0.021,0,0.044-0.022c0.022-0.021,0.022-0.027,0.022-0.045V8.03
		c0-0.017,0-0.022-0.022-0.044c-0.022-0.023-0.027-0.023-0.044-0.023H0.066c-0.017,0-0.022,0-0.045,0.023
		C-0.001,8.007-0.001,8.014-0.001,8.03v1.327c0,0.018,0,0.023,0.022,0.045C0.043,9.424,0.048,9.424,0.066,9.424z"/>
</g>
</svg>
