<?xml version="1.0" encoding="utf-8"?>
<!-- Generator: Adobe Illustrator 16.0.0, SVG Export Plug-In . SVG Version: 6.00 Build 0)  -->
<!DOCTYPE svg PUBLIC "-//W3C//DTD SVG 1.1//EN" "http://www.w3.org/Graphics/SVG/1.1/DTD/svg11.dtd">
<svg version="1.1" id="Слой_1" xmlns="http://www.w3.org/2000/svg" xmlns:xlink="http://www.w3.org/1999/xlink" x="0px" y="0px"
	 width="31px" height="10.058px" viewBox="0 0 31 10.058" enable-background="new 0 0 31 10.058" xml:space="preserve">
<g>
	<path fill-rule="evenodd" clip-rule="evenodd" fill="#FFFFFF" d="M30.091,0C30.395,0,30.697,0,31,0c0,3.353,0,6.705,0,10.058
		c-10.333,0-20.667,0-31,0c0-0.673,0-1.347,0-2.02c0.007,0.025,0.018,0.05,0.021,0.076c0.101,0.894,0.773,1.656,1.646,1.856
		C1.83,10.008,2,10.021,2.177,10.047c0-0.071,0-0.114,0-0.158c0-2.529,0-5.059-0.001-7.588c0-0.111-0.006-0.222-0.015-0.332
		c-0.08-0.917-0.768-1.705-1.664-1.904C0.38,0.038,0.26,0.021,0.142,0c1.11,0,2.222,0,3.332,0c0.019,0.153,0.023,0.31,0.058,0.459
		C3.76,1.484,4.614,2.17,5.663,2.177c0.296,0.002,0.592-0.002,0.888,0.001c0.553,0.005,0.966,0.544,0.832,1.08
		C7.28,3.67,6.937,3.934,6.493,3.936C5.847,3.938,5.2,3.933,4.555,3.938C3.945,3.944,3.479,4.42,3.479,5.029
		C3.477,5.969,3.475,6.907,3.481,7.846C3.482,8.029,3.505,8.217,3.55,8.395c0.246,0.97,1.104,1.635,2.105,1.639
		c0.875,0.002,1.75,0.003,2.625-0.002c0.175,0,0.351-0.014,0.522-0.043c1.589-0.27,2.701-1.749,2.505-3.356
		c-0.141-1.151-0.764-1.963-1.81-2.456C9.465,4.161,9.433,4.145,9.403,4.131c0-0.014-0.001-0.021,0-0.027
		C9.41,4.081,9.418,4.059,9.425,4.036c0.148-0.455,0.193-0.918,0.129-1.393c-0.168-1.229-1.069-2.241-2.275-2.54
		C7.084,0.055,6.883,0.034,6.685,0c3.427,0,6.854,0,10.279,0c-0.032,0.007-0.064,0.015-0.098,0.02
		c-0.206,0.028-0.414,0.044-0.619,0.083c-2.704,0.513-4.498,3.206-3.94,5.911c0.573,2.774,3.289,4.526,6.037,3.895
		c3.014-0.691,4.708-3.939,3.51-6.793c-0.726-1.729-2.053-2.742-3.906-3.055C17.796,0.034,17.642,0.02,17.489,0
		c1.764,0,3.527,0,5.291,0c-0.102,0.016-0.203,0.032-0.305,0.048c-0.223,0.036-0.437,0.097-0.65,0.2
		c0.951,1.407,1.896,2.807,2.849,4.215c0.034-0.033,0.06-0.053,0.082-0.077c0.575-0.625,0.809-1.356,0.685-2.199
		c-0.154-1.044-0.999-1.926-2.032-2.119C23.254,0.04,23.098,0.022,22.942,0c2.248,0,4.496,0,6.745,0
		c-0.06,0.009-0.118,0.019-0.178,0.027C28.575,0.164,27.839,0.62,27.32,1.41c-1.789,2.728-3.573,5.459-5.359,8.189
		c-0.049,0.075-0.097,0.151-0.147,0.233c0.028,0.012,0.049,0.021,0.07,0.029c0.453,0.157,0.918,0.213,1.392,0.146
		c0.932-0.13,1.66-0.592,2.185-1.373c0.294-0.438,0.585-0.879,0.877-1.319c0.021-0.032,0.045-0.063,0.075-0.108
		c0.033,0.05,0.059,0.088,0.083,0.127c0.296,0.461,0.569,0.938,0.891,1.382c0.749,1.035,1.773,1.451,3.036,1.269
		c0.184-0.026,0.361-0.089,0.557-0.139c-0.035-0.055-0.054-0.085-0.074-0.115C29.91,8.21,28.917,6.689,27.92,5.172
		c-0.06-0.091-0.065-0.15-0.004-0.246c0.998-1.534,1.99-3.071,2.983-4.607c0.023-0.036,0.044-0.072,0.074-0.12
		c-0.112-0.034-0.209-0.072-0.31-0.093C30.474,0.065,30.282,0.035,30.091,0z"/>
	<path fill-rule="evenodd" clip-rule="evenodd" fill="#414146" d="M17.489,0c0.152,0.02,0.307,0.034,0.458,0.06
		c1.854,0.313,3.181,1.327,3.906,3.055c1.198,2.854-0.496,6.102-3.51,6.793c-2.748,0.631-5.464-1.121-6.037-3.895
		c-0.558-2.705,1.236-5.398,3.94-5.911c0.205-0.039,0.413-0.055,0.619-0.083c0.033-0.004,0.065-0.013,0.098-0.02
		C17.14,0,17.314,0,17.489,0z M20.061,5.021c0.001-1.569-1.266-2.841-2.832-2.843c-1.57-0.002-2.848,1.271-2.849,2.839
		c-0.001,1.57,1.273,2.843,2.846,2.842C18.793,7.859,20.06,6.59,20.061,5.021z"/>
	<path fill-rule="evenodd" clip-rule="evenodd" fill="#414146" d="M6.685,0c0.198,0.034,0.399,0.055,0.594,0.104
		c1.206,0.299,2.107,1.311,2.275,2.54c0.064,0.475,0.02,0.938-0.129,1.393C9.418,4.059,9.41,4.081,9.403,4.104
		c-0.001,0.006,0,0.013,0,0.027c0.029,0.014,0.062,0.03,0.095,0.046c1.046,0.492,1.669,1.305,1.81,2.456
		c0.196,1.607-0.916,3.086-2.505,3.356c-0.172,0.029-0.348,0.043-0.522,0.043c-0.875,0.005-1.75,0.004-2.625,0.002
		C4.654,10.029,3.796,9.364,3.55,8.395C3.505,8.217,3.482,8.029,3.481,7.846C3.475,6.907,3.477,5.969,3.479,5.029
		C3.479,4.42,3.945,3.944,4.555,3.938c0.646-0.006,1.292,0,1.938-0.002C6.937,3.934,7.28,3.67,7.383,3.258
		c0.134-0.536-0.279-1.075-0.832-1.08C6.255,2.175,5.959,2.179,5.663,2.177C4.614,2.17,3.76,1.484,3.531,0.459
		C3.497,0.31,3.492,0.153,3.474,0C4.544,0,5.614,0,6.685,0z M5.655,7.855C5.679,7.857,5.695,7.86,5.711,7.86
		c0.871,0,1.743,0.005,2.614-0.003c0.517-0.004,0.921-0.525,0.816-1.033c-0.09-0.439-0.438-0.721-0.904-0.722
		c-0.824-0.002-1.648,0-2.473,0c-0.035,0-0.071,0.004-0.109,0.006C5.655,6.694,5.655,7.269,5.655,7.855z"/>
	<path fill-rule="evenodd" clip-rule="evenodd" fill="#414146" d="M30.091,0c0.191,0.035,0.383,0.065,0.573,0.106
		c0.101,0.021,0.197,0.059,0.31,0.093c-0.03,0.048-0.051,0.084-0.074,0.12c-0.993,1.536-1.985,3.073-2.983,4.607
		c-0.062,0.095-0.056,0.154,0.004,0.246c0.997,1.518,1.99,3.038,2.984,4.559c0.021,0.03,0.039,0.061,0.074,0.115
		c-0.195,0.05-0.373,0.112-0.557,0.139c-1.263,0.183-2.287-0.233-3.036-1.269c-0.321-0.443-0.595-0.921-0.891-1.382
		c-0.024-0.039-0.05-0.077-0.083-0.127c-0.03,0.045-0.054,0.076-0.075,0.108c-0.292,0.44-0.583,0.881-0.877,1.319
		c-0.524,0.781-1.253,1.243-2.185,1.373c-0.474,0.066-0.938,0.011-1.392-0.146c-0.021-0.008-0.042-0.018-0.07-0.029
		c0.051-0.082,0.099-0.158,0.147-0.233c1.786-2.73,3.57-5.461,5.359-8.189c0.519-0.79,1.255-1.246,2.189-1.382
		c0.06-0.008,0.118-0.018,0.178-0.027C29.822,0,29.956,0,30.091,0z"/>
	<path fill-rule="evenodd" clip-rule="evenodd" fill="#414146" d="M0.142,0C0.26,0.021,0.38,0.038,0.497,0.064
		c0.896,0.2,1.584,0.987,1.664,1.904C2.17,2.079,2.176,2.19,2.176,2.301C2.177,4.83,2.177,7.359,2.177,9.889
		c0,0.044,0,0.087,0,0.158C2,10.021,1.83,10.008,1.666,9.971c-0.872-0.2-1.545-0.963-1.646-1.856C0.018,8.088,0.007,8.063,0,8.038
		C0,5.358,0,2.679,0,0C0.047,0,0.095,0,0.142,0z"/>
	<path fill-rule="evenodd" clip-rule="evenodd" fill="#FF4195" d="M22.942,0c0.155,0.022,0.312,0.04,0.466,0.068
		c1.033,0.192,1.878,1.074,2.032,2.119c0.124,0.842-0.109,1.574-0.685,2.199c-0.022,0.024-0.048,0.044-0.082,0.077
		c-0.952-1.408-1.897-2.808-2.849-4.215c0.214-0.103,0.428-0.164,0.65-0.2C22.577,0.032,22.679,0.016,22.78,0
		C22.834,0,22.888,0,22.942,0z"/>
	<path fill-rule="evenodd" clip-rule="evenodd" fill="#FFFFFF" d="M20.061,5.021c-0.001,1.569-1.268,2.838-2.835,2.838
		c-1.572,0.001-2.847-1.272-2.846-2.842c0.001-1.568,1.278-2.841,2.849-2.839C18.795,2.181,20.062,3.452,20.061,5.021z"/>
	<path fill-rule="evenodd" clip-rule="evenodd" fill="#FFFFFF" d="M5.655,7.855c0-0.587,0-1.162,0-1.748
		c0.038-0.002,0.074-0.006,0.109-0.006c0.824,0,1.648-0.001,2.473,0c0.466,0.001,0.814,0.283,0.904,0.722
		c0.104,0.507-0.3,1.029-0.816,1.033C7.454,7.865,6.582,7.86,5.711,7.86C5.695,7.86,5.679,7.857,5.655,7.855z"/>
</g>
</svg>
