<?xml version="1.0" encoding="utf-8"?>
<!-- Generator: Adobe Illustrator 16.0.0, SVG Export Plug-In . SVG Version: 6.00 Build 0)  -->
<!DOCTYPE svg PUBLIC "-//W3C//DTD SVG 1.1//EN" "http://www.w3.org/Graphics/SVG/1.1/DTD/svg11.dtd">
<svg version="1.1" id="Слой_1" xmlns="http://www.w3.org/2000/svg" xmlns:xlink="http://www.w3.org/1999/xlink" x="0px" y="0px"
	 width="23.852px" height="23.851px" viewBox="0 0 23.852 23.851" enable-background="new 0 0 23.852 23.851" xml:space="preserve">
<g>
	<g>
		<g>
			<path fill="#393939" d="M11.925,3.252c-1.196,0-2.17,0.973-2.17,2.169s0.974,2.169,2.17,2.169s2.169-0.973,2.169-2.169
				S13.121,3.252,11.925,3.252z M11.925,6.506c-0.599,0-1.085-0.486-1.085-1.085c0-0.598,0.486-1.085,1.085-1.085
				s1.085,0.487,1.085,1.085C13.01,6.02,12.523,6.506,11.925,6.506z"/>
			<path fill="#393939" d="M23.309,9.757c0.3,0,0.543-0.24,0.543-0.541V7.049c0-0.191-0.101-0.368-0.266-0.466L12.982,0.286
				c-0.005-0.003-0.01-0.006-0.015-0.009c-0.658-0.365-1.402-0.376-2.099,0.008L0.266,6.583C0.101,6.681,0,6.858,0,7.049v2.168
				c0,0.3,0.243,0.541,0.543,0.541h1.626v9.757C0.973,19.515,0,20.487,0,21.683v1.626c0,0.3,0.243,0.542,0.543,0.542h22.766
				c0.3,0,0.543-0.242,0.543-0.542v-1.626c0-1.195-0.973-2.168-2.169-2.168V9.757H23.309z M22.767,21.683v1.084H1.084v-1.084
				c0-0.598,0.487-1.084,1.085-1.084h0.542h18.43h0.542C22.28,20.599,22.767,21.085,22.767,21.683z M3.253,19.515V9.757h2.168v9.757
				H3.253z M6.506,19.515V9.757h3.252v9.757H6.506z M10.842,19.515V9.757h2.168v9.757H10.842z M14.094,19.515V9.757h3.253v9.757
				H14.094z M18.431,19.515V9.757h2.168v9.757H18.431z M1.084,8.673V7.355l10.323-6.132c0.337-0.186,0.695-0.186,1.029-0.003
				l10.33,6.135v1.318H1.084z"/>
		</g>
	</g>
</g>
</svg>
