<?xml version="1.0" encoding="utf-8"?>
<!-- Generator: Adobe Illustrator 16.0.0, SVG Export Plug-In . SVG Version: 6.00 Build 0)  -->
<!DOCTYPE svg PUBLIC "-//W3C//DTD SVG 1.1//EN" "http://www.w3.org/Graphics/SVG/1.1/DTD/svg11.dtd">
<svg version="1.1" id="Слой_1" xmlns="http://www.w3.org/2000/svg" xmlns:xlink="http://www.w3.org/1999/xlink" x="0px" y="0px"
	 width="20px" height="20.661px" viewBox="0 0 20 20.661" enable-background="new 0 0 20 20.661" xml:space="preserve">
<g>
	<path fill="#393939" d="M19.996,6.904c0-0.51-0.199-0.99-0.56-1.351c-0.361-0.361-0.841-0.561-1.351-0.561l-13.1,0.009V1.234
		l10.021-0.005l-0.01,1.645c0,0.338,0.275,0.617,0.615,0.62c0.341,0,0.618-0.275,0.618-0.613l0.009-1.583
		C16.24,0.583,15.655,0,14.936,0L5.053,0.004c-0.351,0-0.678,0.136-0.92,0.383C3.884,0.64,3.752,0.959,3.752,1.309v3.697H1.911
		c-0.51,0-0.989,0.199-1.351,0.56C0.199,5.927,0,6.407,0,6.917l0.005,7.468c-0.004,0.509,0.193,0.988,0.556,1.351
		c0.361,0.361,0.841,0.561,1.351,0.561c0.34,0,0.617-0.277,0.617-0.617s-0.277-0.617-0.617-0.617c-0.175,0-0.343-0.068-0.473-0.192
		c-0.129-0.129-0.2-0.3-0.2-0.479L1.234,6.921c0-0.373,0.304-0.676,0.677-0.676l16.175-0.008c0.174,0,0.342,0.068,0.472,0.192
		c0.129,0.128,0.2,0.299,0.2,0.479l0.004,7.468c0,0.178-0.071,0.352-0.195,0.477c-0.127,0.127-0.296,0.196-0.477,0.196
		c-0.34,0-0.617,0.276-0.617,0.617c0,0.34,0.277,0.616,0.617,0.616c0.51,0,0.989-0.198,1.351-0.56c0.361-0.36,0.56-0.841,0.56-1.351
		L19.996,6.904z"/>
	<path fill="#393939" d="M15.623,10.025L4.365,10.03c-0.341,0-0.617,0.277-0.617,0.617l0.004,8.714c0,0.717,0.585,1.3,1.305,1.3
		l9.883-0.004c0.351,0,0.678-0.136,0.92-0.383c0.246-0.245,0.381-0.572,0.381-0.922v-8.71c0-0.165-0.065-0.322-0.18-0.433
		C15.943,10.093,15.784,10.025,15.623,10.025z M15.011,19.428L4.99,19.433l-0.004-8.169l10.02-0.004L15.011,19.428z"/>
</g>
</svg>
