<?xml version="1.0" encoding="utf-8"?>
<!-- Generator: Adobe Illustrator 16.0.0, SVG Export Plug-In . SVG Version: 6.00 Build 0)  -->
<!DOCTYPE svg PUBLIC "-//W3C//DTD SVG 1.1//EN" "http://www.w3.org/Graphics/SVG/1.1/DTD/svg11.dtd">
<svg version="1.1" id="Слой_1" xmlns="http://www.w3.org/2000/svg" xmlns:xlink="http://www.w3.org/1999/xlink" x="0px" y="0px"
	 width="20px" height="24.696px" viewBox="0 0 20 24.696" enable-background="new 0 0 20 24.696" xml:space="preserve">
<g>
	<g>
		<g>
			<path fill="#393939" d="M18.992,2.509l-8.037-2.371c-0.625-0.184-1.284-0.184-1.908,0L1.009,2.509C0.415,2.684,0,3.238,0,3.857
				v6.657c0,3.081,0.918,6.047,2.652,8.579c1.694,2.472,4.051,4.373,6.816,5.498c0.172,0.07,0.352,0.105,0.532,0.105
				c0.18,0,0.359-0.035,0.531-0.105c2.765-1.125,5.122-3.026,6.816-5.498C19.084,16.561,20,13.594,20,10.514V3.857
				C20.001,3.238,19.586,2.684,18.992,2.509z M18.876,10.514c0,2.853-0.849,5.6-2.455,7.943c-1.568,2.29-3.752,4.05-6.313,5.093
				c-0.069,0.028-0.146,0.028-0.216,0c-2.561-1.043-4.744-2.803-6.313-5.093c-1.606-2.343-2.455-5.09-2.455-7.943V3.857
				c0-0.124,0.083-0.235,0.201-0.27l8.038-2.371c0.208-0.062,0.423-0.092,0.637-0.092s0.428,0.031,0.636,0.092l8.038,2.371
				c0.118,0.035,0.201,0.146,0.201,0.27V10.514z"/>
		</g>
	</g>
	<g>
		<g>
			<path fill="#393939" d="M16.229,4.995l-5.99-1.767c-0.156-0.046-0.321-0.046-0.478,0l-5.99,1.767
				C3.415,5.1,3.167,5.433,3.167,5.804v4.71c0,2.489,0.753,4.875,2.177,6.903c1.104,1.572,2.579,2.87,4.267,3.754
				c0.122,0.064,0.256,0.096,0.391,0.096c0.134,0,0.268-0.031,0.39-0.096c1.688-0.884,3.163-2.182,4.267-3.754
				c1.425-2.027,2.178-4.414,2.178-6.903v-4.71C16.834,5.433,16.586,5.1,16.229,4.995z M15.71,10.514
				c0,2.256-0.682,4.42-1.973,6.256c-0.973,1.386-2.263,2.535-3.736,3.334c-1.475-0.799-2.765-1.948-3.737-3.334
				c-1.291-1.836-1.973-4-1.973-6.256v-4.5l5.71-1.684l5.709,1.684V10.514z"/>
		</g>
	</g>
</g>
</svg>
