<?xml version="1.0" encoding="utf-8"?>
<!-- Generator: Adobe Illustrator 16.0.0, SVG Export Plug-In . SVG Version: 6.00 Build 0)  -->
<!DOCTYPE svg PUBLIC "-//W3C//DTD SVG 1.1//EN" "http://www.w3.org/Graphics/SVG/1.1/DTD/svg11.dtd">
<svg version="1.1" id="Слой_1" xmlns="http://www.w3.org/2000/svg" xmlns:xlink="http://www.w3.org/1999/xlink" x="0px" y="0px"
	 width="62px" height="62px" viewBox="0 0 62 62" enable-background="new 0 0 62 62" xml:space="preserve">
<g>
	<g>
		<path fill="#393939" d="M31,62C13.906,62,0,48.093,0,31C0,13.906,13.906,0,31,0c17.093,0,31,13.906,31,31
			C62,48.093,48.093,62,31,62z M31,1.228C14.583,1.228,1.228,14.583,1.228,31c0,16.417,13.355,29.772,29.772,29.772
			c16.416,0,29.771-13.355,29.771-29.772C60.771,14.583,47.416,1.228,31,1.228z"/>
	</g>
	<g>
		<path fill="#393939" d="M39.314,21.197c0.043,0.347,0.073,0.697,0.073,1.056c0,0.064-0.008,0.127-0.01,0.191h4.166
			c0.055,0.5,0.176,0.989,0.359,1.455h-4.679c-0.086,0.43-0.212,0.844-0.359,1.247h1.978c0.289,2.631,2.384,4.726,5.015,5.014v6.804
			c-2.631,0.288-4.726,2.383-5.015,5.014H18.455c-0.289-2.631-2.384-4.726-5.016-5.014v-6.803c2.632-0.289,4.727-2.384,5.016-5.015
			h4.68c-0.148-0.403-0.274-0.817-0.359-1.247h-1.979c0.184-0.466,0.306-0.955,0.36-1.455h1.464c-0.002-0.064-0.01-0.127-0.01-0.191
			c0-0.359,0.029-0.709,0.073-1.056h-7.79v2.702h-2.701v19.326h34.911v-2.702h2.701V21.197H39.314z M16.142,22.444H19.9
			c-0.071,0.509-0.231,1.001-0.474,1.455h-3.285V22.444z M13.439,25.146h3.759c-0.275,1.942-1.815,3.482-3.759,3.758V25.146z
			 M13.439,41.978V38.22c1.943,0.275,3.483,1.816,3.759,3.758H13.439z M45.857,41.978H42.1c0.275-1.941,1.815-3.482,3.758-3.758
			V41.978z M45.857,28.904c-1.942-0.275-3.482-1.815-3.758-3.758h3.758V28.904z M48.559,39.276h-1.454v-3.285
			c0.454-0.242,0.945-0.402,1.454-0.475V39.276z M48.559,34.261c-0.5,0.055-0.988,0.176-1.454,0.359V27.1
			c0.466,0.184,0.954,0.305,1.454,0.36V34.261z M48.56,26.203L48.56,26.203c-0.51-0.072-1.001-0.232-1.455-0.474v-1.83h-1.831
			c-0.241-0.454-0.401-0.946-0.474-1.455h3.76V26.203z"/>
	</g>
	<g>
		<path fill="#393939" d="M31,31.255c-4.964,0-9.003-4.039-9.003-9.002S26.036,13.25,31,13.25s9.002,4.039,9.002,9.002
			S35.964,31.255,31,31.255z M31,14.478c-4.287,0-7.775,3.487-7.775,7.774c0,4.287,3.488,7.774,7.775,7.774
			c4.286,0,7.774-3.488,7.774-7.774C38.774,17.965,35.286,14.478,31,14.478z"/>
	</g>
	<g>
		<path fill="#393939" d="M34.655,19.526c-0.134-0.133-0.312-0.207-0.5-0.207c-0.189,0-0.367,0.074-0.501,0.208l-3.948,3.948
			l-1.362-1.361c-0.133-0.134-0.311-0.208-0.5-0.208c-0.19,0-0.368,0.074-0.501,0.208c-0.276,0.276-0.276,0.726,0,1.002l1.862,1.862
			c0.133,0.134,0.311,0.208,0.501,0.208c0.189,0,0.367-0.074,0.501-0.208l4.449-4.449c0.134-0.133,0.207-0.311,0.207-0.5
			S34.79,19.661,34.655,19.526z"/>
	</g>
</g>
</svg>
